<?xml version="1.0" encoding="UTF-8" standalone="no"?>
<!DOCTYPE svg PUBLIC "-//W3C//DTD SVG 1.1//EN"
 "http://www.w3.org/Graphics/SVG/1.1/DTD/svg11.dtd">
<!-- Generated by graphviz version 2.47.1 (20210515.0534)
 -->
<!-- Title: largeRelationshipsDiagram Pages: 1 -->
<svg width="675pt" height="1129pt"
 viewBox="0.00 0.00 675.00 1129.00" xmlns="http://www.w3.org/2000/svg" xmlns:xlink="http://www.w3.org/1999/xlink">
<g id="graph0" class="graph" transform="scale(1 1) rotate(0) translate(4 1125)">
<title>largeRelationshipsDiagram</title>
<polygon fill="#ffffff" stroke="transparent" points="-4,4 -4,-1125 671,-1125 671,4 -4,4"/>
<text text-anchor="middle" x="73.5" y="-7.2" font-family="Helvetica,sans-Serif" font-size="11.00">Generated by SchemaSpy</text>
<!-- environments -->
<g id="node1" class="node">
<title>environments</title>
<g id="a_node1"><a xlink:href="../../tables/environments.html" xlink:title="environments" target="_top">
<polygon fill="#ffffff" stroke="transparent" points="147,-831 147,-1003 275,-1003 275,-831 147,-831"/>
<polygon fill="#f5f5f5" stroke="transparent" points="147,-981 147,-1003 275,-1003 275,-981 147,-981"/>
<polygon fill="none" stroke="black" points="147,-981 147,-1003 275,-1003 275,-981 147,-981"/>
<text text-anchor="start" x="152" y="-990.2" font-family="Helvetica,sans-Serif" font-weight="bold" font-size="11.00">environments</text>
<text text-anchor="start" x="236" y="-989.2" font-family="Helvetica,sans-Serif" font-size="11.00">[table]</text>
<polygon fill="none" stroke="black" points="147,-959 147,-981 275,-981 275,-959 147,-959"/>
<image xlink:href="../../images/primaryKeys.png" width="11px" height="12px" preserveAspectRatio="xMinYMin meet" x="152" y="-976"/>
<text text-anchor="start" x="179" y="-967.2" font-family="Helvetica,sans-Serif" font-size="11.00">id</text>
<polygon fill="none" stroke="black" points="147,-937 147,-959 275,-959 275,-937 147,-937"/>
<text text-anchor="start" x="179" y="-945.2" font-family="Helvetica,sans-Serif" font-size="11.00">created</text>
<polygon fill="none" stroke="black" points="147,-915 147,-937 275,-937 275,-915 147,-915"/>
<text text-anchor="start" x="179" y="-923.2" font-family="Helvetica,sans-Serif" font-size="11.00">updated</text>
<polygon fill="none" stroke="black" points="147,-893 147,-915 275,-915 275,-893 147,-893"/>
<text text-anchor="start" x="179" y="-901.2" font-family="Helvetica,sans-Serif" font-size="11.00">name</text>
<polygon fill="none" stroke="black" points="147,-871 147,-893 275,-893 275,-871 147,-871"/>
<text text-anchor="start" x="179" y="-879.2" font-family="Helvetica,sans-Serif" font-size="11.00">description</text>
<polygon fill="none" stroke="black" points="147,-849 147,-871 275,-871 275,-849 147,-849"/>
<image xlink:href="../../images/foreignKeys.png" width="11px" height="12px" preserveAspectRatio="xMinYMin meet" x="152" y="-866"/>
<text text-anchor="start" x="179" y="-857.2" font-family="Helvetica,sans-Serif" font-size="11.00">tenant_id</text>
<polygon fill="#ffffff" stroke="transparent" points="147,-831 147,-849 204,-849 204,-831 147,-831"/>
<polygon fill="none" stroke="black" points="147,-831 147,-849 204,-849 204,-831 147,-831"/>
<text text-anchor="start" x="150" y="-837.2" font-family="Helvetica,sans-Serif" font-size="11.00">&lt; 1</text>
<polygon fill="#ffffff" stroke="transparent" points="204,-831 204,-849 235,-849 235,-831 204,-831"/>
<polygon fill="none" stroke="black" points="204,-831 204,-849 235,-849 235,-831 204,-831"/>
<text text-anchor="start" x="225" y="-837.2" font-family="Helvetica,sans-Serif" font-size="11.00"> &#160;</text>
<polygon fill="#ffffff" stroke="transparent" points="235,-831 235,-849 275,-849 275,-831 235,-831"/>
<polygon fill="none" stroke="black" points="235,-831 235,-849 275,-849 275,-831 235,-831"/>
<text text-anchor="start" x="256" y="-837.2" font-family="Helvetica,sans-Serif" font-size="11.00">1 &gt;</text>
</a>
</g>
</g>
<!-- tenants -->
<g id="node7" class="node">
<title>tenants</title>
<g id="a_node7"><a xlink:href="../../tables/tenants.html" xlink:title="tenants" target="_top">
<polygon fill="#ffffff" stroke="transparent" points="8,-464 8,-614 98,-614 98,-464 8,-464"/>
<polygon fill="#f5f5f5" stroke="transparent" points="8,-592 8,-614 98,-614 98,-592 8,-592"/>
<polygon fill="none" stroke="black" points="8,-592 8,-614 98,-614 98,-592 8,-592"/>
<text text-anchor="start" x="12.5" y="-601.2" font-family="Helvetica,sans-Serif" font-weight="bold" font-size="11.00">tenants</text>
<text text-anchor="start" x="59" y="-600.2" font-family="Helvetica,sans-Serif" font-size="11.00">[table]</text>
<polygon fill="none" stroke="black" points="8,-570 8,-592 98,-592 98,-570 8,-570"/>
<image xlink:href="../../images/primaryKeys.png" width="11px" height="12px" preserveAspectRatio="xMinYMin meet" x="13" y="-587"/>
<text text-anchor="start" x="38" y="-578.2" font-family="Helvetica,sans-Serif" font-size="11.00">id</text>
<polygon fill="none" stroke="black" points="8,-548 8,-570 98,-570 98,-548 8,-548"/>
<text text-anchor="start" x="38" y="-556.2" font-family="Helvetica,sans-Serif" font-size="11.00">created</text>
<polygon fill="none" stroke="black" points="8,-526 8,-548 98,-548 98,-526 8,-526"/>
<text text-anchor="start" x="38" y="-534.2" font-family="Helvetica,sans-Serif" font-size="11.00">updated</text>
<polygon fill="none" stroke="black" points="8,-504 8,-526 98,-526 98,-504 8,-504"/>
<text text-anchor="start" x="38" y="-512.2" font-family="Helvetica,sans-Serif" font-size="11.00">name</text>
<polygon fill="none" stroke="black" points="8,-482 8,-504 98,-504 98,-482 8,-482"/>
<text text-anchor="start" x="38" y="-490.2" font-family="Helvetica,sans-Serif" font-size="11.00">status</text>
<polygon fill="#ffffff" stroke="transparent" points="8,-464 8,-482 42,-482 42,-464 8,-464"/>
<polygon fill="none" stroke="black" points="8,-464 8,-482 42,-482 42,-464 8,-464"/>
<text text-anchor="start" x="11" y="-470.2" font-family="Helvetica,sans-Serif" font-size="11.00"> &#160;</text>
<polygon fill="#ffffff" stroke="transparent" points="42,-464 42,-482 65,-482 65,-464 42,-464"/>
<polygon fill="none" stroke="black" points="42,-464 42,-482 65,-482 65,-464 42,-464"/>
<text text-anchor="start" x="55" y="-470.2" font-family="Helvetica,sans-Serif" font-size="11.00"> &#160;</text>
<polygon fill="#ffffff" stroke="transparent" points="65,-464 65,-482 98,-482 98,-464 65,-464"/>
<polygon fill="none" stroke="black" points="65,-464 65,-482 98,-482 98,-464 65,-464"/>
<text text-anchor="start" x="79" y="-470.2" font-family="Helvetica,sans-Serif" font-size="11.00">6 &gt;</text>
</a>
</g>
</g>
<!-- environments&#45;&gt;tenants -->
<g id="edge6" class="edge">
<title>environments:w&#45;&gt;tenants:e</title>
<path fill="none" stroke="black" d="M132.75,-854.17C95.62,-814.11 156.47,-581 99,-581"/>
<polygon fill="black" stroke="black" points="138.68,-856.78 144.55,-863.3 142.34,-858.39 146,-860 146,-860 146,-860 142.34,-858.39 147.45,-856.7 138.68,-856.78 138.68,-856.78"/>
<ellipse fill="none" stroke="black" cx="135.75" cy="-855.49" rx="3.2" ry="3.2"/>
</g>
<!-- deployment_teams -->
<g id="node2" class="node">
<title>deployment_teams</title>
<g id="a_node2"><a xlink:href="../../tables/deployment_teams.html" xlink:title="deployment_teams" target="_top">
<polygon fill="#ffffff" stroke="transparent" points="501,-815 501,-921 659,-921 659,-815 501,-815"/>
<polygon fill="#f5f5f5" stroke="transparent" points="501,-899 501,-921 659,-921 659,-899 501,-899"/>
<polygon fill="none" stroke="black" points="501,-899 501,-921 659,-921 659,-899 501,-899"/>
<text text-anchor="start" x="506" y="-908.2" font-family="Helvetica,sans-Serif" font-weight="bold" font-size="11.00">deployment_teams</text>
<text text-anchor="start" x="620" y="-907.2" font-family="Helvetica,sans-Serif" font-size="11.00">[table]</text>
<polygon fill="none" stroke="black" points="501,-877 501,-899 659,-899 659,-877 501,-877"/>
<image xlink:href="../../images/primaryKeys.png" width="11px" height="12px" preserveAspectRatio="xMinYMin meet" x="506" y="-894"/>
<text text-anchor="start" x="533" y="-885.2" font-family="Helvetica,sans-Serif" font-size="11.00">deployment_id</text>
<polygon fill="none" stroke="black" points="501,-855 501,-877 659,-877 659,-855 501,-855"/>
<image xlink:href="../../images/primaryKeys.png" width="11px" height="12px" preserveAspectRatio="xMinYMin meet" x="506" y="-872"/>
<text text-anchor="start" x="533" y="-863.2" font-family="Helvetica,sans-Serif" font-size="11.00">team_id</text>
<polygon fill="none" stroke="black" points="501,-833 501,-855 659,-855 659,-833 501,-833"/>
<text text-anchor="start" x="533" y="-841.2" font-family="Helvetica,sans-Serif" font-size="11.00">role</text>
<polygon fill="#ffffff" stroke="transparent" points="501,-815 501,-833 578,-833 578,-815 501,-815"/>
<polygon fill="none" stroke="black" points="501,-815 501,-833 578,-833 578,-815 501,-815"/>
<text text-anchor="start" x="504" y="-821.2" font-family="Helvetica,sans-Serif" font-size="11.00">&lt; 2</text>
<polygon fill="#ffffff" stroke="transparent" points="578,-815 578,-833 618,-833 618,-815 578,-815"/>
<polygon fill="none" stroke="black" points="578,-815 578,-833 618,-833 618,-815 578,-815"/>
<text text-anchor="start" x="608" y="-821.2" font-family="Helvetica,sans-Serif" font-size="11.00"> &#160;</text>
<polygon fill="#ffffff" stroke="transparent" points="618,-815 618,-833 659,-833 659,-815 618,-815"/>
<polygon fill="none" stroke="black" points="618,-815 618,-833 659,-833 659,-815 618,-815"/>
<text text-anchor="start" x="649" y="-821.2" font-family="Helvetica,sans-Serif" font-size="11.00"> &#160;</text>
</a>
</g>
</g>
<!-- teams -->
<g id="node4" class="node">
<title>teams</title>
<g id="a_node4"><a xlink:href="../../tables/teams.html" xlink:title="teams" target="_top">
<polygon fill="#ffffff" stroke="transparent" points="167,-445 167,-617 255,-617 255,-445 167,-445"/>
<polygon fill="#f5f5f5" stroke="transparent" points="167,-595 167,-617 255,-617 255,-595 167,-595"/>
<polygon fill="none" stroke="black" points="167,-595 167,-617 255,-617 255,-595 167,-595"/>
<text text-anchor="start" x="171.5" y="-604.2" font-family="Helvetica,sans-Serif" font-weight="bold" font-size="11.00">teams</text>
<text text-anchor="start" x="216" y="-603.2" font-family="Helvetica,sans-Serif" font-size="11.00">[table]</text>
<polygon fill="none" stroke="black" points="167,-573 167,-595 255,-595 255,-573 167,-573"/>
<image xlink:href="../../images/primaryKeys.png" width="11px" height="12px" preserveAspectRatio="xMinYMin meet" x="172" y="-590"/>
<text text-anchor="start" x="187" y="-581.2" font-family="Helvetica,sans-Serif" font-size="11.00">id</text>
<polygon fill="none" stroke="black" points="167,-551 167,-573 255,-573 255,-551 167,-551"/>
<text text-anchor="start" x="187" y="-559.2" font-family="Helvetica,sans-Serif" font-size="11.00">created</text>
<polygon fill="none" stroke="black" points="167,-529 167,-551 255,-551 255,-529 167,-529"/>
<text text-anchor="start" x="187" y="-537.2" font-family="Helvetica,sans-Serif" font-size="11.00">updated</text>
<polygon fill="none" stroke="black" points="167,-507 167,-529 255,-529 255,-507 167,-507"/>
<text text-anchor="start" x="187" y="-515.2" font-family="Helvetica,sans-Serif" font-size="11.00">name</text>
<polygon fill="none" stroke="black" points="167,-485 167,-507 255,-507 255,-485 167,-485"/>
<image xlink:href="../../images/foreignKeys.png" width="11px" height="12px" preserveAspectRatio="xMinYMin meet" x="172" y="-502"/>
<text text-anchor="start" x="187" y="-493.2" font-family="Helvetica,sans-Serif" font-size="11.00">tenant_id</text>
<polygon fill="none" stroke="black" points="167,-463 167,-485 255,-485 255,-463 167,-463"/>
<text text-anchor="start" x="187" y="-471.2" font-family="Helvetica,sans-Serif" font-size="11.00">description</text>
<polygon fill="#ffffff" stroke="transparent" points="167,-445 167,-463 204,-463 204,-445 167,-445"/>
<polygon fill="none" stroke="black" points="167,-445 167,-463 204,-463 204,-445 167,-445"/>
<text text-anchor="start" x="170" y="-451.2" font-family="Helvetica,sans-Serif" font-size="11.00">&lt; 1</text>
<polygon fill="#ffffff" stroke="transparent" points="204,-445 204,-463 225,-463 225,-445 204,-445"/>
<polygon fill="none" stroke="black" points="204,-445 204,-463 225,-463 225,-445 204,-445"/>
<text text-anchor="start" x="215" y="-451.2" font-family="Helvetica,sans-Serif" font-size="11.00"> &#160;</text>
<polygon fill="#ffffff" stroke="transparent" points="225,-445 225,-463 255,-463 255,-445 225,-445"/>
<polygon fill="none" stroke="black" points="225,-445 225,-463 255,-463 255,-445 225,-445"/>
<text text-anchor="start" x="236" y="-451.2" font-family="Helvetica,sans-Serif" font-size="11.00">3 &gt;</text>
</a>
</g>
</g>
<!-- deployment_teams&#45;&gt;teams -->
<g id="edge2" class="edge">
<title>deployment_teams:w&#45;&gt;teams:e</title>
<path fill="none" stroke="black" d="M485.5,-864.3C432.16,-849.6 511.89,-743.13 460,-689 414.12,-641.14 372.57,-684.59 316,-650 282.18,-629.32 295.64,-584 256,-584"/>
<polygon fill="black" stroke="black" points="492.05,-865.07 499.58,-869.58 496.03,-865.53 500,-866 500,-866 500,-866 496.03,-865.53 500.42,-862.42 492.05,-865.07 492.05,-865.07"/>
<ellipse fill="none" stroke="black" cx="488.88" cy="-864.7" rx="3.2" ry="3.2"/>
</g>
<!-- deployments -->
<g id="node10" class="node">
<title>deployments</title>
<g id="a_node10"><a xlink:href="../../tables/deployments.html" xlink:title="deployments" target="_top">
<polygon fill="#ffffff" stroke="transparent" points="327,-857 327,-1117 449,-1117 449,-857 327,-857"/>
<polygon fill="#f5f5f5" stroke="transparent" points="327,-1095 327,-1117 449,-1117 449,-1095 327,-1095"/>
<polygon fill="none" stroke="black" points="327,-1095 327,-1117 449,-1117 449,-1095 327,-1095"/>
<text text-anchor="start" x="332" y="-1104.2" font-family="Helvetica,sans-Serif" font-weight="bold" font-size="11.00">deployments</text>
<text text-anchor="start" x="410" y="-1103.2" font-family="Helvetica,sans-Serif" font-size="11.00">[table]</text>
<polygon fill="none" stroke="black" points="327,-1073 327,-1095 449,-1095 449,-1073 327,-1073"/>
<image xlink:href="../../images/primaryKeys.png" width="11px" height="12px" preserveAspectRatio="xMinYMin meet" x="332" y="-1090"/>
<text text-anchor="start" x="351" y="-1081.2" font-family="Helvetica,sans-Serif" font-size="11.00">id</text>
<polygon fill="none" stroke="black" points="327,-1051 327,-1073 449,-1073 449,-1051 327,-1051"/>
<text text-anchor="start" x="351" y="-1059.2" font-family="Helvetica,sans-Serif" font-size="11.00">created</text>
<polygon fill="none" stroke="black" points="327,-1029 327,-1051 449,-1051 449,-1029 327,-1029"/>
<text text-anchor="start" x="351" y="-1037.2" font-family="Helvetica,sans-Serif" font-size="11.00">updated</text>
<polygon fill="none" stroke="black" points="327,-1007 327,-1029 449,-1029 449,-1007 327,-1007"/>
<text text-anchor="start" x="351" y="-1015.2" font-family="Helvetica,sans-Serif" font-size="11.00">name</text>
<polygon fill="none" stroke="black" points="327,-985 327,-1007 449,-1007 449,-985 327,-985"/>
<image xlink:href="../../images/foreignKeys.png" width="11px" height="12px" preserveAspectRatio="xMinYMin meet" x="332" y="-1002"/>
<text text-anchor="start" x="351" y="-993.2" font-family="Helvetica,sans-Serif" font-size="11.00">tenant_id</text>
<polygon fill="none" stroke="black" points="327,-963 327,-985 449,-985 449,-963 327,-963"/>
<text text-anchor="start" x="351" y="-971.2" font-family="Helvetica,sans-Serif" font-size="11.00">description</text>
<polygon fill="none" stroke="black" points="327,-941 327,-963 449,-963 449,-941 327,-941"/>
<image xlink:href="../../images/foreignKeys.png" width="11px" height="12px" preserveAspectRatio="xMinYMin meet" x="332" y="-958"/>
<text text-anchor="start" x="351" y="-949.2" font-family="Helvetica,sans-Serif" font-size="11.00">project_id</text>
<polygon fill="none" stroke="black" points="327,-919 327,-941 449,-941 449,-919 327,-919"/>
<text text-anchor="start" x="351" y="-927.2" font-family="Helvetica,sans-Serif" font-size="11.00">status</text>
<polygon fill="none" stroke="black" points="327,-897 327,-919 449,-919 449,-897 327,-897"/>
<text text-anchor="start" x="351" y="-905.2" font-family="Helvetica,sans-Serif" font-size="11.00">version</text>
<polygon fill="none" stroke="black" points="327,-875 327,-897 449,-897 449,-875 327,-875"/>
<image xlink:href="../../images/foreignKeys.png" width="11px" height="12px" preserveAspectRatio="xMinYMin meet" x="332" y="-892"/>
<text text-anchor="start" x="351" y="-883.2" font-family="Helvetica,sans-Serif" font-size="11.00">environment_id</text>
<polygon fill="#ffffff" stroke="transparent" points="327,-857 327,-875 381,-875 381,-857 327,-857"/>
<polygon fill="none" stroke="black" points="327,-857 327,-875 381,-875 381,-857 327,-857"/>
<text text-anchor="start" x="330" y="-863.2" font-family="Helvetica,sans-Serif" font-size="11.00">&lt; 3</text>
<polygon fill="#ffffff" stroke="transparent" points="381,-857 381,-875 410,-875 410,-857 381,-857"/>
<polygon fill="none" stroke="black" points="381,-857 381,-875 410,-875 410,-857 381,-857"/>
<text text-anchor="start" x="400" y="-863.2" font-family="Helvetica,sans-Serif" font-size="11.00"> &#160;</text>
<polygon fill="#ffffff" stroke="transparent" points="410,-857 410,-875 449,-875 449,-857 410,-857"/>
<polygon fill="none" stroke="black" points="410,-857 410,-875 449,-875 449,-857 410,-857"/>
<text text-anchor="start" x="430" y="-863.2" font-family="Helvetica,sans-Serif" font-size="11.00">1 &gt;</text>
</a>
</g>
</g>
<!-- deployment_teams&#45;&gt;deployments -->
<g id="edge1" class="edge">
<title>deployment_teams:w&#45;&gt;deployments:e</title>
<path fill="none" stroke="black" d="M485.61,-890.2C425.47,-911.73 534.28,-1084 450,-1084"/>
<polygon fill="black" stroke="black" points="492.09,-889.21 500.54,-891.56 496.05,-888.6 500,-888 500,-888 500,-888 496.05,-888.6 499.46,-884.44 492.09,-889.21 492.09,-889.21"/>
<ellipse fill="none" stroke="black" cx="488.93" cy="-889.69" rx="3.2" ry="3.2"/>
</g>
<!-- projects -->
<g id="node3" class="node">
<title>projects</title>
<g id="a_node3"><a xlink:href="../../tables/projects.html" xlink:title="projects" target="_top">
<polygon fill="#ffffff" stroke="transparent" points="165,-638 165,-810 257,-810 257,-638 165,-638"/>
<polygon fill="#f5f5f5" stroke="transparent" points="165,-788 165,-810 257,-810 257,-788 165,-788"/>
<polygon fill="none" stroke="black" points="165,-788 165,-810 257,-810 257,-788 165,-788"/>
<text text-anchor="start" x="169.5" y="-797.2" font-family="Helvetica,sans-Serif" font-weight="bold" font-size="11.00">projects</text>
<text text-anchor="start" x="218" y="-796.2" font-family="Helvetica,sans-Serif" font-size="11.00">[table]</text>
<polygon fill="none" stroke="black" points="165,-766 165,-788 257,-788 257,-766 165,-766"/>
<image xlink:href="../../images/primaryKeys.png" width="11px" height="12px" preserveAspectRatio="xMinYMin meet" x="170" y="-783"/>
<text text-anchor="start" x="187" y="-774.2" font-family="Helvetica,sans-Serif" font-size="11.00">id</text>
<polygon fill="none" stroke="black" points="165,-744 165,-766 257,-766 257,-744 165,-744"/>
<text text-anchor="start" x="187" y="-752.2" font-family="Helvetica,sans-Serif" font-size="11.00">created</text>
<polygon fill="none" stroke="black" points="165,-722 165,-744 257,-744 257,-722 165,-722"/>
<text text-anchor="start" x="187" y="-730.2" font-family="Helvetica,sans-Serif" font-size="11.00">updated</text>
<polygon fill="none" stroke="black" points="165,-700 165,-722 257,-722 257,-700 165,-700"/>
<text text-anchor="start" x="187" y="-708.2" font-family="Helvetica,sans-Serif" font-size="11.00">name</text>
<polygon fill="none" stroke="black" points="165,-678 165,-700 257,-700 257,-678 165,-678"/>
<text text-anchor="start" x="187" y="-686.2" font-family="Helvetica,sans-Serif" font-size="11.00">description</text>
<polygon fill="none" stroke="black" points="165,-656 165,-678 257,-678 257,-656 165,-656"/>
<image xlink:href="../../images/foreignKeys.png" width="11px" height="12px" preserveAspectRatio="xMinYMin meet" x="170" y="-673"/>
<text text-anchor="start" x="187" y="-664.2" font-family="Helvetica,sans-Serif" font-size="11.00">tenant_id</text>
<polygon fill="#ffffff" stroke="transparent" points="165,-638 165,-656 204,-656 204,-638 165,-638"/>
<polygon fill="none" stroke="black" points="165,-638 165,-656 204,-656 204,-638 165,-638"/>
<text text-anchor="start" x="168" y="-644.2" font-family="Helvetica,sans-Serif" font-size="11.00">&lt; 1</text>
<polygon fill="#ffffff" stroke="transparent" points="204,-638 204,-656 226,-656 226,-638 204,-638"/>
<polygon fill="none" stroke="black" points="204,-638 204,-656 226,-656 226,-638 204,-638"/>
<text text-anchor="start" x="216" y="-644.2" font-family="Helvetica,sans-Serif" font-size="11.00"> &#160;</text>
<polygon fill="#ffffff" stroke="transparent" points="226,-638 226,-656 257,-656 257,-638 226,-638"/>
<polygon fill="none" stroke="black" points="226,-638 226,-656 257,-656 257,-638 226,-638"/>
<text text-anchor="start" x="238" y="-644.2" font-family="Helvetica,sans-Serif" font-size="11.00">2 &gt;</text>
</a>
</g>
</g>
<!-- projects&#45;&gt;tenants -->
<g id="edge11" class="edge">
<title>projects:w&#45;&gt;tenants:e</title>
<path fill="none" stroke="black" d="M149.78,-663.52C122.4,-647.43 141.11,-581 99,-581"/>
<polygon fill="black" stroke="black" points="156.23,-665.1 163.14,-670.5 160.11,-666.05 164,-667 164,-667 164,-667 160.11,-666.05 164.86,-663.5 156.23,-665.1 156.23,-665.1"/>
<ellipse fill="none" stroke="black" cx="153.12" cy="-664.34" rx="3.2" ry="3.2"/>
</g>
<!-- teams&#45;&gt;tenants -->
<g id="edge13" class="edge">
<title>teams:w&#45;&gt;tenants:e</title>
<path fill="none" stroke="black" d="M151.65,-499.44C123.84,-515.34 141.28,-581 99,-581"/>
<polygon fill="black" stroke="black" points="158.22,-497.86 166.84,-499.5 162.11,-496.93 166,-496 166,-496 166,-496 162.11,-496.93 165.16,-492.5 158.22,-497.86 158.22,-497.86"/>
<ellipse fill="none" stroke="black" cx="155.11" cy="-498.61" rx="3.2" ry="3.2"/>
</g>
<!-- sessions -->
<g id="node5" class="node">
<title>sessions</title>
<g id="a_node5"><a xlink:href="../../tables/sessions.html" xlink:title="sessions" target="_top">
<polygon fill="#ffffff" stroke="transparent" points="341.5,-37 341.5,-187 434.5,-187 434.5,-37 341.5,-37"/>
<polygon fill="#f5f5f5" stroke="transparent" points="342,-165 342,-187 435,-187 435,-165 342,-165"/>
<polygon fill="none" stroke="black" points="342,-165 342,-187 435,-187 435,-165 342,-165"/>
<text text-anchor="start" x="346.5" y="-174.2" font-family="Helvetica,sans-Serif" font-weight="bold" font-size="11.00">sessions</text>
<text text-anchor="start" x="396" y="-173.2" font-family="Helvetica,sans-Serif" font-size="11.00">[table]</text>
<polygon fill="none" stroke="black" points="342,-143 342,-165 435,-165 435,-143 342,-143"/>
<image xlink:href="../../images/primaryKeys.png" width="11px" height="12px" preserveAspectRatio="xMinYMin meet" x="347" y="-160"/>
<text text-anchor="start" x="373" y="-151.2" font-family="Helvetica,sans-Serif" font-size="11.00">id</text>
<polygon fill="none" stroke="black" points="342,-121 342,-143 435,-143 435,-121 342,-121"/>
<text text-anchor="start" x="373" y="-129.2" font-family="Helvetica,sans-Serif" font-size="11.00">created</text>
<polygon fill="none" stroke="black" points="342,-99 342,-121 435,-121 435,-99 342,-99"/>
<text text-anchor="start" x="373" y="-107.2" font-family="Helvetica,sans-Serif" font-size="11.00">updated</text>
<polygon fill="none" stroke="black" points="342,-77 342,-99 435,-99 435,-77 342,-77"/>
<text text-anchor="start" x="373" y="-85.2" font-family="Helvetica,sans-Serif" font-size="11.00">status</text>
<polygon fill="none" stroke="black" points="342,-55 342,-77 435,-77 435,-55 342,-55"/>
<image xlink:href="../../images/foreignKeys.png" width="11px" height="12px" preserveAspectRatio="xMinYMin meet" x="347" y="-72"/>
<text text-anchor="start" x="373" y="-63.2" font-family="Helvetica,sans-Serif" font-size="11.00">user_id</text>
<polygon fill="#ffffff" stroke="transparent" points="342,-37 342,-55 386,-55 386,-37 342,-37"/>
<polygon fill="none" stroke="black" points="342,-37 342,-55 386,-55 386,-37 342,-37"/>
<text text-anchor="start" x="345" y="-43.2" font-family="Helvetica,sans-Serif" font-size="11.00">&lt; 1</text>
<polygon fill="#ffffff" stroke="transparent" points="386,-37 386,-55 410,-55 410,-37 386,-37"/>
<polygon fill="none" stroke="black" points="386,-37 386,-55 410,-55 410,-37 386,-37"/>
<text text-anchor="start" x="400" y="-43.2" font-family="Helvetica,sans-Serif" font-size="11.00"> &#160;</text>
<polygon fill="#ffffff" stroke="transparent" points="410,-37 410,-55 435,-55 435,-37 410,-37"/>
<polygon fill="none" stroke="black" points="410,-37 410,-55 435,-55 435,-37 410,-37"/>
<text text-anchor="start" x="425" y="-43.2" font-family="Helvetica,sans-Serif" font-size="11.00"> &#160;</text>
</a>
</g>
</g>
<!-- users -->
<g id="node8" class="node">
<title>users</title>
<g id="a_node8"><a xlink:href="../../tables/users.html" xlink:title="users" target="_top">
<polygon fill="#ffffff" stroke="transparent" points="172,-140 172,-334 250,-334 250,-140 172,-140"/>
<polygon fill="#f5f5f5" stroke="transparent" points="172,-312 172,-334 250,-334 250,-312 172,-312"/>
<polygon fill="none" stroke="black" points="172,-312 172,-334 250,-334 250,-312 172,-312"/>
<text text-anchor="start" x="175.5" y="-321.2" font-family="Helvetica,sans-Serif" font-weight="bold" font-size="11.00">users</text>
<text text-anchor="start" x="211" y="-320.2" font-family="Helvetica,sans-Serif" font-size="11.00">[table]</text>
<polygon fill="none" stroke="black" points="172,-290 172,-312 250,-312 250,-290 172,-290"/>
<image xlink:href="../../images/primaryKeys.png" width="11px" height="12px" preserveAspectRatio="xMinYMin meet" x="177" y="-307"/>
<text text-anchor="start" x="192" y="-298.2" font-family="Helvetica,sans-Serif" font-size="11.00">id</text>
<polygon fill="#ffffff" stroke="transparent" points="172,-268 172,-290 250,-290 250,-268 172,-268"/>
<polygon fill="none" stroke="black" points="172,-268 172,-290 250,-290 250,-268 172,-268"/>
<text text-anchor="start" x="192" y="-276.2" font-family="Helvetica,sans-Serif" font-size="11.00">email</text>
<polygon fill="none" stroke="black" points="172,-246 172,-268 250,-268 250,-246 172,-246"/>
<text text-anchor="start" x="192" y="-254.2" font-family="Helvetica,sans-Serif" font-size="11.00">password</text>
<polygon fill="none" stroke="black" points="172,-224 172,-246 250,-246 250,-224 172,-224"/>
<text text-anchor="start" x="192" y="-232.2" font-family="Helvetica,sans-Serif" font-size="11.00">status</text>
<polygon fill="none" stroke="black" points="172,-202 172,-224 250,-224 250,-202 172,-202"/>
<text text-anchor="start" x="192" y="-210.2" font-family="Helvetica,sans-Serif" font-size="11.00">created</text>
<polygon fill="none" stroke="black" points="172,-180 172,-202 250,-202 250,-180 172,-180"/>
<text text-anchor="start" x="192" y="-188.2" font-family="Helvetica,sans-Serif" font-size="11.00">updated</text>
<polygon fill="none" stroke="black" points="172,-158 172,-180 250,-180 250,-158 172,-158"/>
<image xlink:href="../../images/foreignKeys.png" width="11px" height="12px" preserveAspectRatio="xMinYMin meet" x="177" y="-175"/>
<text text-anchor="start" x="192" y="-166.2" font-family="Helvetica,sans-Serif" font-size="11.00">tenant_id</text>
<polygon fill="#ffffff" stroke="transparent" points="172,-140 172,-158 204,-158 204,-140 172,-140"/>
<polygon fill="none" stroke="black" points="172,-140 172,-158 204,-158 204,-140 172,-140"/>
<text text-anchor="start" x="175" y="-146.2" font-family="Helvetica,sans-Serif" font-size="11.00">&lt; 1</text>
<polygon fill="#ffffff" stroke="transparent" points="204,-140 204,-158 222,-158 222,-140 204,-140"/>
<polygon fill="none" stroke="black" points="204,-140 204,-158 222,-158 222,-140 204,-140"/>
<text text-anchor="start" x="212" y="-146.2" font-family="Helvetica,sans-Serif" font-size="11.00"> &#160;</text>
<polygon fill="#ffffff" stroke="transparent" points="222,-140 222,-158 250,-158 250,-140 222,-140"/>
<polygon fill="none" stroke="black" points="222,-140 222,-158 250,-158 250,-140 222,-140"/>
<text text-anchor="start" x="231" y="-146.2" font-family="Helvetica,sans-Serif" font-size="11.00">3 &gt;</text>
</a>
</g>
</g>
<!-- sessions&#45;&gt;users -->
<g id="edge12" class="edge">
<title>sessions:w&#45;&gt;users:e</title>
<path fill="none" stroke="black" d="M326.58,-67.56C241.39,-87.95 357.49,-301 251,-301"/>
<polygon fill="black" stroke="black" points="333.05,-66.86 341.39,-69.58 337.02,-66.43 341,-66 341,-66 341,-66 337.02,-66.43 340.61,-62.42 333.05,-66.86 333.05,-66.86"/>
<ellipse fill="none" stroke="black" cx="329.87" cy="-67.21" rx="3.2" ry="3.2"/>
</g>
<!-- invitations -->
<g id="node6" class="node">
<title>invitations</title>
<g id="a_node6"><a xlink:href="../../tables/invitations.html" xlink:title="invitations" target="_top">
<polygon fill="#ffffff" stroke="transparent" points="334,-208 334,-512 442,-512 442,-208 334,-208"/>
<polygon fill="#f5f5f5" stroke="transparent" points="334,-490 334,-512 442,-512 442,-490 334,-490"/>
<polygon fill="none" stroke="black" points="334,-490 334,-512 442,-512 442,-490 334,-490"/>
<text text-anchor="start" x="339" y="-499.2" font-family="Helvetica,sans-Serif" font-weight="bold" font-size="11.00">invitations</text>
<text text-anchor="start" x="403" y="-498.2" font-family="Helvetica,sans-Serif" font-size="11.00">[table]</text>
<polygon fill="none" stroke="black" points="334,-468 334,-490 442,-490 442,-468 334,-468"/>
<image xlink:href="../../images/primaryKeys.png" width="11px" height="12px" preserveAspectRatio="xMinYMin meet" x="339" y="-485"/>
<text text-anchor="start" x="366" y="-476.2" font-family="Helvetica,sans-Serif" font-size="11.00">id</text>
<polygon fill="none" stroke="black" points="334,-446 334,-468 442,-468 442,-446 334,-446"/>
<image xlink:href="../../images/foreignKeys.png" width="11px" height="12px" preserveAspectRatio="xMinYMin meet" x="339" y="-463"/>
<text text-anchor="start" x="366" y="-454.2" font-family="Helvetica,sans-Serif" font-size="11.00">tenant_id</text>
<polygon fill="none" stroke="black" points="334,-424 334,-446 442,-446 442,-424 334,-424"/>
<text text-anchor="start" x="366" y="-432.2" font-family="Helvetica,sans-Serif" font-size="11.00">created</text>
<polygon fill="none" stroke="black" points="334,-402 334,-424 442,-424 442,-402 334,-402"/>
<text text-anchor="start" x="366" y="-410.2" font-family="Helvetica,sans-Serif" font-size="11.00">updated</text>
<polygon fill="none" stroke="black" points="334,-380 334,-402 442,-402 442,-380 334,-380"/>
<text text-anchor="start" x="366" y="-388.2" font-family="Helvetica,sans-Serif" font-size="11.00">email</text>
<polygon fill="none" stroke="black" points="334,-358 334,-380 442,-380 442,-358 334,-358"/>
<text text-anchor="start" x="366" y="-366.2" font-family="Helvetica,sans-Serif" font-size="11.00">status</text>
<polygon fill="none" stroke="black" points="334,-336 334,-358 442,-358 442,-336 334,-336"/>
<text text-anchor="start" x="366" y="-344.2" font-family="Helvetica,sans-Serif" font-size="11.00">role</text>
<polygon fill="none" stroke="black" points="334,-314 334,-336 442,-336 442,-314 334,-314"/>
<text text-anchor="start" x="366" y="-322.2" font-family="Helvetica,sans-Serif" font-size="11.00">code</text>
<polygon fill="none" stroke="black" points="334,-292 334,-314 442,-314 442,-292 334,-292"/>
<text text-anchor="start" x="366" y="-300.2" font-family="Helvetica,sans-Serif" font-size="11.00">message</text>
<polygon fill="none" stroke="black" points="334,-270 334,-292 442,-292 442,-270 334,-270"/>
<text text-anchor="start" x="366" y="-278.2" font-family="Helvetica,sans-Serif" font-size="11.00">type</text>
<polygon fill="none" stroke="black" points="334,-248 334,-270 442,-270 442,-248 334,-248"/>
<text text-anchor="start" x="366" y="-256.2" font-family="Helvetica,sans-Serif" font-size="11.00">context</text>
<polygon fill="none" stroke="black" points="334,-226 334,-248 442,-248 442,-226 334,-226"/>
<image xlink:href="../../images/foreignKeys.png" width="11px" height="12px" preserveAspectRatio="xMinYMin meet" x="339" y="-243"/>
<text text-anchor="start" x="366" y="-234.2" font-family="Helvetica,sans-Serif" font-size="11.00">user_id</text>
<polygon fill="#ffffff" stroke="transparent" points="334,-208 334,-226 386,-226 386,-208 334,-208"/>
<polygon fill="none" stroke="black" points="334,-208 334,-226 386,-226 386,-208 334,-208"/>
<text text-anchor="start" x="337" y="-214.2" font-family="Helvetica,sans-Serif" font-size="11.00">&lt; 2</text>
<polygon fill="#ffffff" stroke="transparent" points="386,-208 386,-226 414,-226 414,-208 386,-208"/>
<polygon fill="none" stroke="black" points="386,-208 386,-226 414,-226 414,-208 386,-208"/>
<text text-anchor="start" x="404" y="-214.2" font-family="Helvetica,sans-Serif" font-size="11.00"> &#160;</text>
<polygon fill="#ffffff" stroke="transparent" points="414,-208 414,-226 442,-226 442,-208 414,-208"/>
<polygon fill="none" stroke="black" points="414,-208 414,-226 442,-226 442,-208 414,-208"/>
<text text-anchor="start" x="432" y="-214.2" font-family="Helvetica,sans-Serif" font-size="11.00"> &#160;</text>
</a>
</g>
</g>
<!-- invitations&#45;&gt;tenants -->
<g id="edge7" class="edge">
<title>invitations:w&#45;&gt;tenants:e</title>
<path fill="none" stroke="black" d="M318.66,-454.42C306.49,-449.47 301,-438.79 283,-435 220.37,-421.83 189.88,-396.18 139,-435 85.51,-475.81 166.28,-581 99,-581"/>
<polygon fill="black" stroke="black" points="325.13,-455.58 332.36,-460.54 329.06,-456.29 333,-457 333,-457 333,-457 329.06,-456.29 333.64,-453.46 325.13,-455.58 325.13,-455.58"/>
<ellipse fill="none" stroke="black" cx="321.98" cy="-455.02" rx="3.2" ry="3.2"/>
</g>
<!-- invitations&#45;&gt;users -->
<g id="edge8" class="edge">
<title>invitations:w&#45;&gt;users:e</title>
<path fill="none" stroke="black" d="M318.5,-239.59C288.47,-251.56 291.63,-301 251,-301"/>
<polygon fill="black" stroke="black" points="325.12,-238.41 333.63,-240.54 329.06,-237.7 333,-237 333,-237 333,-237 329.06,-237.7 332.37,-233.46 325.12,-238.41 325.12,-238.41"/>
<ellipse fill="none" stroke="black" cx="321.97" cy="-238.97" rx="3.2" ry="3.2"/>
</g>
<!-- users&#45;&gt;tenants -->
<g id="edge16" class="edge">
<title>users:w&#45;&gt;tenants:e</title>
<path fill="none" stroke="black" d="M156.71,-173.08C90.69,-215.87 186.5,-581 99,-581"/>
<polygon fill="black" stroke="black" points="163.31,-171.2 171.99,-172.46 167.15,-170.1 171,-169 171,-169 171,-169 167.15,-170.1 170.01,-165.54 163.31,-171.2 163.31,-171.2"/>
<ellipse fill="none" stroke="black" cx="160.23" cy="-172.07" rx="3.2" ry="3.2"/>
</g>
<!-- user_teams -->
<g id="node9" class="node">
<title>user_teams</title>
<g id="a_node9"><a xlink:href="../../tables/user_teams.html" xlink:title="user_teams" target="_top">
<polygon fill="#ffffff" stroke="transparent" points="332,-533 332,-639 444,-639 444,-533 332,-533"/>
<polygon fill="#f5f5f5" stroke="transparent" points="332,-617 332,-639 444,-639 444,-617 332,-617"/>
<polygon fill="none" stroke="black" points="332,-617 332,-639 444,-639 444,-617 332,-617"/>
<text text-anchor="start" x="337" y="-626.2" font-family="Helvetica,sans-Serif" font-weight="bold" font-size="11.00">user_teams</text>
<text text-anchor="start" x="405" y="-625.2" font-family="Helvetica,sans-Serif" font-size="11.00">[table]</text>
<polygon fill="none" stroke="black" points="332,-595 332,-617 444,-617 444,-595 332,-595"/>
<image xlink:href="../../images/primaryKeys.png" width="11px" height="12px" preserveAspectRatio="xMinYMin meet" x="337" y="-612"/>
<text text-anchor="start" x="364" y="-603.2" font-family="Helvetica,sans-Serif" font-size="11.00">user_id</text>
<polygon fill="none" stroke="black" points="332,-573 332,-595 444,-595 444,-573 332,-573"/>
<image xlink:href="../../images/primaryKeys.png" width="11px" height="12px" preserveAspectRatio="xMinYMin meet" x="337" y="-590"/>
<text text-anchor="start" x="364" y="-581.2" font-family="Helvetica,sans-Serif" font-size="11.00">team_id</text>
<polygon fill="none" stroke="black" points="332,-551 332,-573 444,-573 444,-551 332,-551"/>
<text text-anchor="start" x="364" y="-559.2" font-family="Helvetica,sans-Serif" font-size="11.00">role</text>
<polygon fill="#ffffff" stroke="transparent" points="332,-533 332,-551 386,-551 386,-533 332,-533"/>
<polygon fill="none" stroke="black" points="332,-533 332,-551 386,-551 386,-533 332,-533"/>
<text text-anchor="start" x="335" y="-539.2" font-family="Helvetica,sans-Serif" font-size="11.00">&lt; 2</text>
<polygon fill="#ffffff" stroke="transparent" points="386,-533 386,-551 415,-551 415,-533 386,-533"/>
<polygon fill="none" stroke="black" points="386,-533 386,-551 415,-551 415,-533 386,-533"/>
<text text-anchor="start" x="405" y="-539.2" font-family="Helvetica,sans-Serif" font-size="11.00"> &#160;</text>
<polygon fill="#ffffff" stroke="transparent" points="415,-533 415,-551 444,-551 444,-533 415,-533"/>
<polygon fill="none" stroke="black" points="415,-533 415,-551 444,-551 444,-533 415,-533"/>
<text text-anchor="start" x="434" y="-539.2" font-family="Helvetica,sans-Serif" font-size="11.00"> &#160;</text>
</a>
</g>
</g>
<!-- user_teams&#45;&gt;teams -->
<g id="edge14" class="edge">
<title>user_teams:w&#45;&gt;teams:e</title>
<path fill="none" stroke="black" d="M316.39,-584C294.26,-584 283.86,-584 256,-584"/>
<polygon fill="black" stroke="black" points="323,-584 331,-587.6 327,-584 331,-584 331,-584 331,-584 327,-584 331,-580.4 323,-584 323,-584"/>
<ellipse fill="none" stroke="black" cx="319.8" cy="-584" rx="3.2" ry="3.2"/>
</g>
<!-- user_teams&#45;&gt;users -->
<g id="edge15" class="edge">
<title>user_teams:w&#45;&gt;users:e</title>
<path fill="none" stroke="black" d="M317.14,-600.96C269.34,-561.3 315.73,-301 251,-301"/>
<polygon fill="black" stroke="black" points="323.48,-603.27 329.77,-609.38 327.24,-604.63 331,-606 331,-606 331,-606 327.24,-604.63 332.23,-602.62 323.48,-603.27 323.48,-603.27"/>
<ellipse fill="none" stroke="black" cx="320.47" cy="-602.17" rx="3.2" ry="3.2"/>
</g>
<!-- deployments&#45;&gt;environments -->
<g id="edge3" class="edge">
<title>deployments:w&#45;&gt;environments:e</title>
<path fill="none" stroke="black" d="M311.99,-890.52C291.34,-907.96 313.34,-970 276,-970"/>
<polygon fill="black" stroke="black" points="318.39,-888.45 327.1,-889.43 322.19,-887.23 326,-886 326,-886 326,-886 322.19,-887.23 324.9,-882.57 318.39,-888.45 318.39,-888.45"/>
<ellipse fill="none" stroke="black" cx="315.34" cy="-889.44" rx="3.2" ry="3.2"/>
</g>
<!-- deployments&#45;&gt;projects -->
<g id="edge4" class="edge">
<title>deployments:w&#45;&gt;projects:e</title>
<path fill="none" stroke="black" d="M311.68,-949.79C254.89,-929.53 335.9,-777 258,-777"/>
<polygon fill="black" stroke="black" points="318.09,-950.78 325.45,-955.56 322.05,-951.39 326,-952 326,-952 326,-952 322.05,-951.39 326.55,-948.44 318.09,-950.78 318.09,-950.78"/>
<ellipse fill="none" stroke="black" cx="314.93" cy="-950.29" rx="3.2" ry="3.2"/>
</g>
<!-- deployments&#45;&gt;tenants -->
<g id="edge5" class="edge">
<title>deployments:w&#45;&gt;tenants:e</title>
<path fill="none" stroke="black" d="M311.84,-998.92C302.61,-1003.23 297.44,-1011.1 283,-1014 220.25,-1026.6 186.29,-1057.12 139,-1014 67.6,-948.89 195.63,-581 99,-581"/>
<polygon fill="black" stroke="black" points="318.16,-997.61 326.73,-999.53 322.08,-996.81 326,-996 326,-996 326,-996 322.08,-996.81 325.27,-992.47 318.16,-997.61 318.16,-997.61"/>
<ellipse fill="none" stroke="black" cx="315.03" cy="-998.26" rx="3.2" ry="3.2"/>
</g>
<!-- project_teams -->
<g id="node11" class="node">
<title>project_teams</title>
<g id="a_node11"><a xlink:href="../../tables/project_teams.html" xlink:title="project_teams" target="_top">
<polygon fill="#ffffff" stroke="transparent" points="324,-699 324,-805 452,-805 452,-699 324,-699"/>
<polygon fill="#f5f5f5" stroke="transparent" points="324,-783 324,-805 452,-805 452,-783 324,-783"/>
<polygon fill="none" stroke="black" points="324,-783 324,-805 452,-805 452,-783 324,-783"/>
<text text-anchor="start" x="329" y="-792.2" font-family="Helvetica,sans-Serif" font-weight="bold" font-size="11.00">project_teams</text>
<text text-anchor="start" x="413" y="-791.2" font-family="Helvetica,sans-Serif" font-size="11.00">[table]</text>
<polygon fill="none" stroke="black" points="324,-761 324,-783 452,-783 452,-761 324,-761"/>
<image xlink:href="../../images/primaryKeys.png" width="11px" height="12px" preserveAspectRatio="xMinYMin meet" x="329" y="-778"/>
<text text-anchor="start" x="356" y="-769.2" font-family="Helvetica,sans-Serif" font-size="11.00">project_id</text>
<polygon fill="none" stroke="black" points="324,-739 324,-761 452,-761 452,-739 324,-739"/>
<image xlink:href="../../images/primaryKeys.png" width="11px" height="12px" preserveAspectRatio="xMinYMin meet" x="329" y="-756"/>
<text text-anchor="start" x="356" y="-747.2" font-family="Helvetica,sans-Serif" font-size="11.00">team_id</text>
<polygon fill="none" stroke="black" points="324,-717 324,-739 452,-739 452,-717 324,-717"/>
<text text-anchor="start" x="356" y="-725.2" font-family="Helvetica,sans-Serif" font-size="11.00">role</text>
<polygon fill="#ffffff" stroke="transparent" points="324,-699 324,-717 386,-717 386,-699 324,-699"/>
<polygon fill="none" stroke="black" points="324,-699 324,-717 386,-717 386,-699 324,-699"/>
<text text-anchor="start" x="327" y="-705.2" font-family="Helvetica,sans-Serif" font-size="11.00">&lt; 2</text>
<polygon fill="#ffffff" stroke="transparent" points="386,-699 386,-717 419,-717 419,-699 386,-699"/>
<polygon fill="none" stroke="black" points="386,-699 386,-717 419,-717 419,-699 386,-699"/>
<text text-anchor="start" x="409" y="-705.2" font-family="Helvetica,sans-Serif" font-size="11.00"> &#160;</text>
<polygon fill="#ffffff" stroke="transparent" points="419,-699 419,-717 452,-717 452,-699 419,-699"/>
<polygon fill="none" stroke="black" points="419,-699 419,-717 452,-717 452,-699 419,-699"/>
<text text-anchor="start" x="442" y="-705.2" font-family="Helvetica,sans-Serif" font-size="11.00"> &#160;</text>
</a>
</g>
</g>
<!-- project_teams&#45;&gt;projects -->
<g id="edge9" class="edge">
<title>project_teams:w&#45;&gt;projects:e</title>
<path fill="none" stroke="black" d="M308.46,-772.48C290.52,-773.73 281.43,-777 258,-777"/>
<polygon fill="black" stroke="black" points="315,-772.26 323.12,-775.6 319,-772.13 323,-772 323,-772 323,-772 319,-772.13 322.88,-768.4 315,-772.26 315,-772.26"/>
<ellipse fill="none" stroke="black" cx="311.81" cy="-772.37" rx="3.2" ry="3.2"/>
</g>
<!-- project_teams&#45;&gt;teams -->
<g id="edge10" class="edge">
<title>project_teams:w&#45;&gt;teams:e</title>
<path fill="none" stroke="black" d="M308.64,-747.65C255.55,-727.48 329.97,-584 256,-584"/>
<polygon fill="black" stroke="black" points="315.1,-748.71 322.42,-753.55 319.05,-749.35 323,-750 323,-750 323,-750 319.05,-749.35 323.58,-746.45 315.1,-748.71 315.1,-748.71"/>
<ellipse fill="none" stroke="black" cx="311.95" cy="-748.19" rx="3.2" ry="3.2"/>
</g>
</g>
</svg>
